<?xml version="1.0" encoding="utf-8"?>
<!-- Generator: Adobe Illustrator 25.2.0, SVG Export Plug-In . SVG Version: 6.00 Build 0)  -->
<svg version="1.1" id="Layer_1" xmlns="http://www.w3.org/2000/svg" xmlns:xlink="http://www.w3.org/1999/xlink" x="0px" y="0px"
	 viewBox="0 0 820 754" style="enable-background:new 0 0 820 754;" xml:space="preserve">
<style type="text/css">
	.st0{display:none;opacity:0.28;}
	.st1{display:none;fill:#FFFFFF;}
	.st2{fill:#FFFFFF;}
</style>
<rect y="0" class="st0" width="820" height="754"/>
<rect y="0" class="st1" width="820" height="754"/>
<g>
	<g id="k">
		<polygon class="st2" points="179,141 179,504.6 70,582.53 70,636.62 223,527.23 223,527 223,526.79 223,141 		"/>
		<polygon class="st2" points="521.16,141 219.21,356.88 193.62,321.09 445.51,141 		"/>
		<polygon class="st2" points="523.63,536 221.68,320.12 196.09,355.91 447.98,536 		"/>
	</g>
	<g id="y">
		<polygon class="st2" points="751,204.18 751,258.27 641.69,336.42 614.66,355.75 597.68,332.01 597.65,313.82 601.57,311.02 		"/>
		<polygon class="st2" points="301.37,330 603.32,545.88 628.91,510.09 377.02,330 		"/>
		<polygon class="st2" points="642.22,663.96 598.22,664.03 597.68,332.01 597.65,313.82 601.57,311.02 641.65,310.96 
			641.69,336.42 		"/>
	</g>
</g>
</svg>
