<svg width="302" height="290" viewBox="0 0 302 290" fill="none" xmlns="http://www.w3.org/2000/svg">
<g clip-path="url(#clip0_211_33)">
<path d="M-65.8484 -410.338C-49.9812 -399.631 -31.9097 -383.94 -35.1504 -367.543C-41.523 -335.286 -123.871 -328.779 -195.524 -301.427C-321.254 -253.437 -388.06 -151.198 -407.557 -121.358C-491.328 6.83033 -498.512 197.132 -397.935 312.371C-282.998 444.062 -98.9799 395.634 -12.2496 537.486C25.92 599.913 25.6819 667.185 19.4681 714.359M-68.9157 -420.988C-53.7339 -410.215 -36.4127 -394.631 -39.7045 -378.363C-46.4195 -345.757 -126.578 -338.195 -196.321 -310.521C-318.819 -261.64 -383.874 -160.545 -403.113 -129.898C-484.661 -0.00122639 -490.652 186.879 -391.448 300.035C-315.49 386.287 -209.63 394.041 -120.352 432.26C-74.1924 451.857 -33.1193 478.912 -3.47739 527.696C34.6578 590.51 34.9314 658.141 29.1223 705.918M-71.9883 -431.642C-57.4869 -420.804 -40.8589 -405.311 -44.2589 -389.187C-51.226 -356.246 -129.346 -347.73 -197.113 -319.62C-316.444 -270.09 -379.694 -169.896 -398.668 -138.437C-478.028 -6.86455 -483.038 176.838 -384.96 287.709C-308.762 373.853 -202.302 380.68 -111.594 420.795C-65.2604 441.285 -24.2406 468.995 5.29485 517.906C43.4158 581.106 44.1812 649.102 38.7768 697.481M-75.0555 -442.292C-61.2397 -431.388 -45.3359 -415.994 -48.8135 -400.012C-56.0527 -366.733 -132.086 -357.223 -197.931 -328.717C-314.064 -278.407 -375.535 -179.256 -394.243 -146.97C-471.438 -13.7589 -475.306 166.684 -378.495 275.409C-301.942 361.362 -194.928 367.197 -102.85 409.355C-56.3074 430.662 -15.3802 459.104 14.0491 508.148C52.1457 571.735 53.412 640.078 48.4132 689.071M-78.1277 -452.941C-64.9926 -441.977 -49.8178 -426.677 -53.3625 -410.832C-60.8991 -377.213 -134.825 -366.711 -198.704 -337.832C-311.645 -286.747 -371.341 -188.628 -389.775 -155.531C-464.835 -20.6889 -467.521 156.497 -371.985 263.037C-295.082 348.798 -187.51 353.631 -94.0709 397.843C-47.3147 419.961 -6.47983 449.141 22.8423 498.302C60.9144 562.276 62.6839 630.997 58.0885 680.579M-81.2 -463.591C-68.7453 -452.562 -54.3003 -437.364 -57.9222 -421.656C-65.7558 -387.692 -137.569 -376.204 -199.499 -346.912C-309.255 -295.06 -367.182 -197.997 -385.333 -164.046C-458.295 -27.6334 -459.753 146.35 -365.506 250.727C-288.243 336.295 -180.113 340.121 -85.3116 386.398C-38.3475 409.322 2.39532 439.245 31.6168 488.542C69.6595 552.902 71.9265 621.993 67.7406 672.172M-84.2668 -474.236C-72.5022 -463.136 -58.7663 -448.038 -62.4754 -432.466C-70.6119 -398.167 -140.314 -385.642 -200.295 -355.996C-306.861 -303.339 -363.015 -207.387 -380.888 -172.585C-451.777 -34.6058 -451.973 136.172 -359.018 238.401C-281.39 323.772 -172.713 326.581 -76.5541 374.932C-29.3727 398.653 11.2741 429.328 40.3894 478.757C78.4078 543.504 81.1763 612.954 77.3951 663.736M-87.3398 -484.895C-76.2712 -473.733 -63.2755 -458.743 -67.0308 -443.301C-75.4697 -408.661 -143.057 -395.12 -201.092 -365.09C-304.469 -311.637 -358.861 -216.756 -376.435 -181.14C-445.283 -41.6254 -444.174 125.969 -352.527 226.054C-274.529 311.223 -165.296 313.006 -67.7834 363.441C-20.3898 387.958 20.1625 419.405 49.1702 468.946C87.1642 534.081 90.4351 603.899 87.0582 655.28M-90.407 -495.545C-80.0088 -484.319 -67.7621 -469.421 -71.5849 -454.121C-80.3363 -419.14 -145.799 -404.583 -201.885 -374.199C-302.102 -319.923 -354.709 -226.145 -371.998 -189.659C-438.828 -48.6173 -436.388 115.801 -346.048 213.744C-267.68 298.715 -157.891 299.465 -59.0343 351.996C-11.4192 377.299 29.0313 409.494 57.9341 459.182C95.9038 524.703 99.6751 594.865 96.7041 646.864M-93.4797 -506.199C-83.7619 -494.908 -72.2546 -480.107 -76.1394 -464.945C-85.2033 -429.623 -148.545 -414.041 -202.683 -383.297C-299.693 -328.203 -350.567 -235.528 -367.553 -198.194C-432.401 -55.6513 -428.578 105.601 -339.565 201.418C-260.818 286.181 -150.478 285.89 -50.2717 340.53C-2.43051 366.614 37.9101 399.577 66.7064 449.392C104.652 515.3 108.927 585.845 106.359 638.427M-96.5518 -516.849C-87.4993 -505.493 -76.7466 -490.789 -80.6985 -475.765C-90.0704 -440.107 -151.292 -423.494 -203.479 -392.391C-297.304 -336.476 -346.431 -244.93 -363.089 -206.735C-425.976 -62.6999 -420.759 95.4008 -333.056 189.09C-253.926 273.639 -143.036 272.308 -41.4927 329.078C6.56962 355.942 46.8101 389.674 75.5004 439.621C113.411 505.916 118.198 576.818 116.035 630.004M-99.6191 -527.499C-91.2676 -516.081 -81.2446 -501.48 -85.253 -486.589C-94.9479 -450.594 -154.027 -432.942 -204.292 -401.489C-294.94 -344.743 -342.321 -254.33 -358.684 -215.266C-419.636 -69.7366 -412.961 85.1924 -326.614 176.768C-247.105 261.099 -135.655 258.72 -32.7717 317.6C15.5105 345.231 55.6472 379.746 84.231 429.82C122.133 496.5 127.406 567.772 125.648 621.557M-102.692 -538.153C-95.0202 -526.665 -85.7369 -512.167 -89.807 -497.409C-99.8254 -461.082 -156.778 -442.385 -205.068 -410.584C-292.534 -352.993 -338.179 -263.727 -354.218 -223.803C-413.265 -76.8253 -405.107 74.9744 -320.106 164.44C-240.193 248.555 -128.204 245.122 -23.9935 306.138C24.5447 334.542 64.5466 369.832 93.0239 420.033C130.901 487.1 136.677 558.736 135.323 613.123M-105.759 -548.803C-98.7729 -537.249 -90.2346 -522.853 -94.3617 -508.234C-104.704 -471.584 -159.523 -451.828 -205.866 -419.683C-290.143 -361.242 -334.063 -273.113 -349.774 -232.342C-406.94 -83.9151 -397.265 64.7475 -313.618 152.109C-233.302 235.994 -120.77 231.511 -15.2314 294.668C33.5113 323.834 73.4248 359.91 101.796 410.243C139.648 477.687 145.925 549.677 144.972 604.683M-108.831 -559.453C-102.531 -547.838 -94.737 -533.539 -98.9359 -519.052C-109.636 -482.048 -162.292 -461.25 -206.683 -428.78C-287.751 -369.476 -329.955 -282.543 -345.329 -240.886C-400.64 -91.0127 -389.418 54.5104 -307.135 139.779C-226.412 223.433 -113.335 217.894 -6.47408 283.197C42.5036 313.129 82.298 349.989 110.568 400.449C148.396 468.289 155.176 540.652 154.626 596.242M-111.904 -570.107C-106.284 -558.422 -99.2401 -544.23 -103.469 -529.858C-114.476 -492.519 -165.004 -470.656 -207.453 -437.857C-285.346 -377.677 -325.849 -291.932 -340.883 -249.401C-394.363 -98.069 -381.554 44.2915 -300.646 127.472C-219.509 210.896 -105.884 204.296 2.28998 271.751C51.5225 302.441 91.1635 340.098 119.342 390.688C157.147 458.916 164.428 531.642 164.283 587.83M-114.969 -580.732C-110.035 -568.987 -103.72 -554.893 -108.022 -540.673C-119.369 -503.005 -167.737 -480.076 -208.25 -446.95C-282.957 -385.881 -321.754 -301.336 -336.437 -257.931C-388.106 -105.193 -373.687 34.0528 -294.162 115.151C-212.599 198.328 -98.4355 190.668 11.048 260.29C60.4996 291.737 100.048 330.186 128.115 380.904C165.895 449.517 173.694 522.606 173.937 579.384M-118.043 -591.406C-113.789 -579.596 -108.246 -565.606 -112.579 -551.522C-124.269 -513.515 -170.471 -489.5 -209.049 -456.069C-280.554 -394.101 -317.667 -310.774 -331.995 -266.495C-381.876 -112.329 -365.811 23.7985 -287.682 102.801C-205.692 185.726 -90.9876 177.031 19.7986 248.801C69.4895 281.003 108.924 320.245 136.881 371.095C174.636 440.095 182.922 513.549 183.585 570.938M-121.111 -602.056C-117.542 -590.18 -112.754 -576.297 -117.133 -562.347C-129.172 -524.011 -173.203 -498.905 -209.841 -465.168C-278.132 -402.288 -313.603 -320.185 -327.55 -275.03C-375.669 -119.444 -357.934 13.5046 -281.194 90.4751C-198.773 173.143 -83.5217 163.368 28.5661 237.335C78.4909 270.287 117.818 310.327 145.663 361.304C183.389 430.692 192.175 504.489 193.245 562.502M-124.183 -612.711C-121.295 -600.769 -117.262 -586.987 -121.687 -573.167C-134.075 -534.501 -175.924 -508.3 -210.648 -474.266C-275.73 -410.459 -309.518 -329.592 -323.115 -283.568C-369.488 -126.561 -350.033 3.24341 -274.716 78.145C-191.839 160.549 -76.0695 149.72 37.3137 225.87C87.4921 259.566 126.691 300.405 154.425 351.515C192.111 421.291 201.417 495.475 202.889 554.066M-127.255 -623.36C-125.048 -611.353 -121.769 -597.667 -126.242 -583.986C-138.987 -544.971 -178.639 -517.682 -211.433 -483.336C-273.279 -418.595 -305.433 -338.995 -318.658 -292.079C-363.305 -133.654 -342.136 -7.00769 -268.223 65.8233C-184.885 147.953 -68.587 136.07 46.0869 214.408C96.5092 248.854 135.589 290.467 163.208 341.734C200.885 411.895 210.677 486.439 212.554 545.634M-130.323 -634.01C-128.806 -621.942 -126.278 -608.368 -130.796 -594.811C-143.903 -555.49 -181.35 -527.069 -212.227 -492.46C-270.836 -426.769 -301.372 -348.436 -314.214 -300.633C-357.151 -140.789 -334.234 -17.3085 -261.734 53.5022C-177.943 135.338 -61.1105 122.411 54.8444 202.943C105.515 238.128 144.449 280.577 171.98 331.945C209.633 402.492 219.928 477.405 222.229 537.196M-133.395 -644.665C-132.558 -632.526 -130.801 -619.057 -135.351 -605.636C-148.822 -565.989 -184.064 -536.445 -213.024 -501.554C-268.37 -434.9 -297.319 -357.851 -309.77 -309.178C-351.022 -147.922 -326.321 -27.6101 -255.252 41.1618C-170.978 122.702 -53.6293 108.746 63.6062 191.467C114.526 227.401 153.327 270.655 180.752 322.155C218.379 393.07 229.177 468.36 231.863 528.756M-136.462 -655.314C-136.312 -643.115 -135.305 -629.762 -139.9 -616.456C-153.746 -576.488 -186.743 -545.82 -213.816 -510.653C-265.883 -443.029 -293.261 -367.271 -305.32 -317.718C-344.893 -155.045 -318.393 -37.9082 -248.759 28.8353C-163.995 110.084 -46.1435 95.076 72.3941 179.999C123.567 216.672 162.236 260.736 189.555 312.363C227.159 383.684 238.456 459.299 241.548 520.318M-139.535 -665.964C-140.059 -653.7 -139.817 -640.442 -144.459 -627.28C-158.67 -586.991 -189.426 -555.184 -214.613 -519.747C-263.376 -451.164 -289.222 -376.685 -300.88 -326.252C-338.814 -162.164 -310.471 -48.2156 -242.276 16.5096C-157.021 97.4372 -38.6581 81.401 81.1263 168.536C132.552 205.948 171.085 250.821 198.297 302.58C235.877 374.288 247.677 450.286 251.172 511.884M-142.608 -676.628C-143.818 -664.293 -144.331 -651.147 -149.016 -638.129C-163.607 -597.523 -192.097 -564.584 -215.413 -528.875C-260.856 -459.256 -285.185 -386.104 -296.435 -334.791C-332.729 -169.284 -302.534 -58.534 -235.799 4.18434C-150.026 84.7789 -31.1676 67.7257 89.8789 157.071C141.563 195.216 179.958 240.905 207.064 292.791C244.62 364.886 256.922 441.252 260.802 503.45M-145.675 -687.268C-147.57 -674.872 -148.849 -661.831 -153.568 -648.925C-168.545 -607.996 -194.751 -573.911 -216.209 -537.959C-258.307 -467.374 -281.155 -395.556 -291.992 -343.346C-326.646 -176.418 -294.589 -68.8729 -229.306 -8.14222C-143.017 72.1241 -23.6671 54.0496 98.662 145.608C150.594 184.488 188.857 230.982 215.857 283.005C253.388 355.486 266.193 432.216 270.497 495.015M-148.747 -697.918C-151.323 -685.457 -153.363 -672.526 -158.127 -659.744C-173.485 -618.503 -197.399 -583.274 -217.01 -547.038C-255.74 -475.46 -277.134 -404.934 -287.556 -351.865C-320.606 -183.514 -286.672 -79.1945 -222.833 -20.4719C-136 59.4197 -16.1727 40.3592 107.392 134.121C159.592 173.733 197.709 221.052 224.603 273.197C262.109 346.065 275.426 423.158 280.124 486.556M-151.814 -708.573C-155.076 -696.046 -157.876 -683.221 -162.681 -670.568C-178.435 -629.015 -200.016 -592.638 -217.797 -556.137C-253.124 -483.564 -273.101 -414.353 -283.094 -360.381C-314.556 -190.621 -278.68 -89.5076 -216.333 -32.7743C-128.947 46.7369 -8.45211 26.4531 116.169 122.698C168.719 162.943 206.601 211.179 233.388 263.451C270.851 336.707 284.677 414.138 289.793 478.163M-154.887 -719.222C-158.834 -706.629 -162.4 -693.915 -167.236 -681.388C-183.386 -639.526 -202.648 -602.002 -218.595 -565.246C-250.489 -491.685 -269.089 -423.779 -278.652 -368.955C-308.528 -197.746 -270.723 -99.8967 -209.854 -45.1441C-121.896 33.9703 -1.00517 12.806 124.928 111.193C177.709 152.203 215.482 201.222 242.188 253.624C279.646 327.266 293.957 405.086 299.469 469.686M-157.959 -729.872C-162.586 -717.214 -166.939 -704.618 -171.79 -692.213C-188.41 -650.066 -205.259 -611.352 -219.386 -574.331C-247.828 -499.788 -265.168 -433.193 -274.206 -377.479C-302.811 -204.88 -262.753 -110.238 -203.364 -57.4555C-114.826 21.2416 6.46543 -0.80362 133.687 99.7373C186.698 141.518 224.357 191.321 250.931 243.852C288.365 317.88 303.178 396.064 309.095 461.267M-161.027 -740.526C-336.341 -320.591 -285.586 -147.651 -196.881 -69.7813C-107.709 8.46966 13.8997 -14.4201 142.444 88.2718C270.988 190.964 307.947 340.461 318.749 452.831" stroke="#3A37ED" stroke-width="1.02" stroke-miterlimit="10"/>
</g>
<defs>
<clipPath id="clip0_211_33">
<rect width="302" height="290" fill="white"/>
</clipPath>
</defs>
</svg>
