<svg width="315" height="700" viewBox="0 0 315 700" fill="none" xmlns="http://www.w3.org/2000/svg">
<g clip-path="url(#clip0_210_31)">
<path d="M543.279 -156.592C556.142 -142.417 569.959 -122.876 562.909 -107.721C549.043 -77.9079 467.512 -91.1862 391.408 -81.6738C257.87 -64.9872 168.65 18.4147 142.611 42.7563C30.7388 147.324 -21.5312 330.447 48.7294 466.312C129.021 621.575 319.277 618.335 369.754 776.752C391.969 846.469 375.727 911.752 358.465 956.091M542.834 -167.666C555.016 -153.59 568.13 -134.331 561.061 -119.314C546.779 -89.2436 467.124 -100.977 392.799 -90.696C262.187 -72.375 174.94 10.3325 148.961 35.52C38.8396 142.275 -11.4561 322.359 57.9661 455.875C111.213 557.727 212.185 590.453 289.802 648.821C329.971 678.841 363.425 714.894 380.604 769.331C402.694 839.417 386.863 905.169 369.85 950.19M542.386 -178.746C553.891 -164.768 566.354 -145.763 559.214 -130.911C544.607 -100.575 466.705 -110.896 394.195 -99.7223C266.504 -80.0168 181.226 2.24475 155.31 28.2838C46.9159 137.188 -1.67127 314.419 67.2013 445.447C120.707 547.251 222.483 579.219 301.037 639.77C341.163 670.699 374.409 707.375 391.455 761.911C413.438 832.368 397.999 898.591 381.235 944.294M541.941 -189.82C552.765 -175.941 564.548 -157.204 557.366 -142.509C542.415 -111.909 466.303 -120.769 395.566 -108.753C270.796 -87.5284 187.494 -5.85597 161.639 21.0492C54.9576 132.06 8.25484 306.398 76.4076 435.04C130.304 536.742 232.854 567.878 312.252 630.74C352.387 662.512 385.368 699.878 402.28 754.516C424.148 825.343 409.112 892.024 392.596 938.419M541.492 -200.894C551.64 -187.119 562.737 -168.647 555.523 -154.101C540.202 -123.241 465.901 -130.636 396.985 -117.79C275.13 -95.0529 193.798 -13.9608 168.016 13.7975C63.0198 126.901 18.2407 298.356 85.6748 424.572C139.956 526.172 243.287 556.468 323.519 621.649C363.668 654.259 396.384 692.319 413.164 747.046C434.916 818.243 420.279 885.411 404.015 932.474M541.042 -211.969C550.514 -198.292 560.927 -180.094 553.671 -165.699C537.979 -134.576 465.495 -140.509 398.373 -126.798C279.431 -102.558 200.067 -22.0712 174.357 6.58473C71.0252 121.712 28.2003 290.349 94.8977 414.157C149.575 515.656 253.688 545.107 334.751 612.616C374.909 646.06 407.36 684.819 424.009 739.654C445.641 811.22 431.399 878.865 415.39 926.606M540.597 -223.038C549.382 -209.457 559.13 -191.524 551.821 -177.282C535.755 -145.905 465.075 -150.329 399.762 -135.81C283.726 -110.029 206.349 -30.1995 180.706 -0.65153C79.0153 116.492 38.1795 282.316 104.133 403.73C159.212 505.123 264.097 533.717 345.985 603.565C386.165 637.833 418.344 677.301 434.858 732.239C456.374 804.174 442.534 872.287 426.775 920.71M540.15 -234.122C548.243 -220.647 557.298 -202.995 549.975 -188.89C533.535 -157.254 464.667 -160.187 401.152 -144.833C288.024 -117.52 212.613 -38.3107 187.068 -7.90075C86.993 111.219 48.1826 274.261 113.376 393.283C168.862 494.568 274.533 522.297 357.239 594.491C397.436 629.584 429.338 669.779 445.722 724.8C467.122 797.105 453.682 865.695 438.173 914.796M539.705 -245.196C547.133 -231.818 555.482 -214.433 548.127 -200.482C531.302 -168.589 464.256 -170.031 402.55 -153.869C292.295 -125.004 218.88 -46.4413 193.404 -15.1192C94.9269 105.965 58.1653 266.239 122.599 382.869C178.491 484.049 284.947 510.908 368.461 585.457C408.685 621.366 440.311 662.263 456.558 717.402C477.842 790.077 464.807 859.12 449.545 908.918M539.256 -256.276C546.008 -242.996 553.662 -225.882 546.28 -212.08C529.07 -179.93 463.839 -179.871 403.941 -162.896C296.605 -132.473 225.137 -54.5687 199.753 -22.3506C102.843 100.662 68.1777 258.191 131.829 372.44C188.139 473.509 295.378 499.487 379.7 576.406C419.959 613.127 451.295 654.744 467.408 709.981C488.577 783.026 475.939 852.561 460.93 903.022M538.807 -267.35C544.897 -254.166 551.841 -237.326 544.427 -223.673C526.838 -191.271 463.422 -189.706 405.331 -171.918C300.895 -139.94 231.391 -62.7163 206.122 -29.5837C110.761 95.3453 78.2 250.145 141.084 362.015C197.818 462.968 305.839 488.066 390.953 567.373C431.24 604.904 462.296 647.244 478.275 702.584C499.318 775.996 487.092 846.001 472.333 897.144M538.363 -278.424C543.757 -265.347 550.017 -248.78 542.579 -235.271C524.596 -202.618 463.013 -199.534 406.707 -180.947C305.158 -147.406 237.621 -70.868 212.431 -36.8215C118.593 90.0197 88.2038 242.086 150.275 351.581C207.428 452.411 316.241 476.626 402.155 558.301C442.473 596.629 473.242 639.704 489.087 695.142C510.03 768.927 498.189 839.406 483.68 891.227M537.914 -289.504C542.631 -276.52 548.197 -260.229 540.731 -246.864C522.355 -213.965 462.589 -209.36 408.118 -189.966C309.459 -154.847 243.88 -79.0099 218.799 -44.0497C126.469 84.6511 98.2636 234.03 159.53 341.156C217.127 441.873 326.714 465.192 413.409 549.257C453.792 588.397 484.245 632.193 499.957 687.729C520.783 761.884 509.344 832.836 495.084 885.339M537.47 -300.578C541.505 -287.693 546.372 -271.678 538.884 -258.461C520.116 -225.327 462.17 -219.185 409.509 -198.993C313.744 -162.29 250.112 -87.1462 225.149 -51.286C134.3 79.2705 108.315 225.964 168.766 330.723C226.809 431.313 337.175 453.741 424.649 540.201C465.049 580.131 495.23 624.67 510.807 680.309C531.519 754.824 520.482 826.239 506.465 879.437M537.02 -311.652C540.375 -298.872 544.542 -283.129 537.016 -270.057C517.817 -236.663 461.723 -228.995 410.88 -208.024C318.027 -169.718 256.346 -95.3269 231.499 -58.5271C142.107 73.8761 118.373 217.888 177.997 320.29C236.491 420.753 347.637 442.285 435.885 531.145C476.331 571.874 506.209 617.145 521.657 672.883C542.253 747.778 531.616 819.675 517.851 873.536M536.572 -322.732C539.249 -310.045 542.713 -294.584 535.185 -281.632C515.607 -247.985 461.328 -238.777 412.292 -217.022C322.315 -177.11 262.569 -103.47 237.844 -65.7391C149.884 68.5166 128.442 209.835 187.229 309.882C246.179 410.218 358.11 430.851 447.121 522.113C487.635 563.639 517.174 609.649 532.503 665.492C552.983 740.756 542.746 813.126 529.232 867.664M536.124 -333.782C538.121 -321.199 540.899 -306.007 533.337 -293.22C513.351 -259.335 460.915 -248.576 413.683 -226.045C326.588 -184.51 268.784 -111.629 244.192 -72.9656C157.656 63.0867 138.52 201.763 196.458 299.458C255.882 399.657 368.588 419.388 458.355 513.067C498.901 555.38 528.162 602.136 543.352 658.076C563.716 733.71 553.896 806.555 540.619 861.759M535.678 -344.88C536.999 -332.397 539.054 -317.49 531.493 -304.842C511.094 -270.709 460.503 -258.38 415.077 -235.091C330.879 -191.922 275 -119.822 250.545 -80.2261C165.406 57.6383 148.61 193.677 205.692 289.005C265.59 389.061 379.067 407.915 469.589 503.99C510.188 547.093 539.15 594.593 554.2 650.635C574.449 726.639 565.015 799.954 552 855.852M535.234 -355.954C535.873 -343.57 537.22 -328.946 529.646 -316.439C508.829 -282.07 460.088 -268.165 416.473 -244.117C335.179 -199.298 281.187 -127.996 256.894 -87.4575C173.127 52.2053 158.711 185.554 214.927 278.577C275.305 378.486 389.571 396.421 480.833 494.94C521.481 538.827 550.149 587.076 565.06 643.216C585.188 719.589 576.158 793.357 563.39 849.957M534.785 -367.034C534.748 -354.748 535.385 -340.402 527.798 -328.032C506.563 -293.426 459.681 -277.938 417.854 -253.146C339.457 -206.662 287.393 -136.161 263.233 -94.6954C180.824 46.7633 168.827 177.468 224.153 268.143C285.037 367.904 400.057 384.94 492.058 485.887C532.775 530.557 561.128 579.552 575.901 635.794C595.897 712.534 587.28 786.801 574.765 844.059M534.336 -378.109C533.622 -365.921 533.55 -351.848 525.949 -339.625C504.285 -304.764 459.277 -287.696 419.251 -262.142C343.774 -213.981 293.599 -144.321 269.588 -101.901C188.518 41.3457 178.937 169.391 233.393 257.721C294.788 357.325 410.573 373.463 503.307 476.842C544.083 522.298 572.135 572.017 586.759 628.385C606.655 705.497 598.424 780.229 586.159 838.169M533.891 -389.182C532.492 -377.1 531.717 -363.314 524.102 -351.222C502.014 -316.151 458.879 -297.458 420.651 -271.193C348.092 -221.339 299.79 -152.524 275.94 -109.152C196.193 35.8804 189.064 161.267 242.627 247.298C304.533 346.725 421.086 361.975 514.542 467.791C555.382 514.024 583.095 564.52 597.609 620.964C617.39 698.446 609.559 773.656 597.564 832.277M533.443 -400.262C531.366 -388.273 529.868 -374.772 522.255 -362.82C499.735 -327.519 458.474 -307.212 422.042 -280.215C352.422 -228.649 305.968 -160.704 282.29 -116.393C203.844 30.411 199.201 153.145 251.86 236.855C314.306 336.11 431.604 350.484 525.783 458.73C566.687 505.75 594.079 556.996 608.459 613.543C628.127 691.376 620.695 767.073 608.93 826.373M532.998 -411.336C530.241 -399.451 528.041 -386.242 520.412 -374.412C497.451 -338.888 458.103 -316.954 423.438 -289.241C356.773 -235.952 312.151 -168.888 288.644 -123.628C211.493 24.9515 209.352 145.03 261.1 226.428C324.091 325.516 442.128 338.988 537.048 449.683C578.022 497.481 605.093 549.482 619.339 606.128C638.889 684.349 631.864 760.48 620.345 820.481M532.549 -422.41C529.121 -410.623 526.2 -397.689 518.559 -386.01C495.168 -350.262 457.726 -326.688 424.828 -298.264C361.143 -243.257 318.314 -177.07 294.988 -130.861C219.092 19.4838 219.5 136.904 270.33 215.999C333.875 314.893 452.653 327.488 548.257 440.627C589.302 489.203 616.047 541.959 630.159 598.707C649.592 677.298 642.966 753.921 631.7 814.581M532.102 -433.5C527.991 -421.807 524.364 -409.161 516.716 -397.632C492.879 -361.666 457.369 -336.454 426.224 -307.32C365.517 -250.516 324.477 -185.257 301.337 -138.097C226.695 14.0169 229.665 128.771 279.555 205.57C343.681 304.263 463.183 315.988 559.487 431.575C600.607 480.925 627.026 534.439 641.004 591.286C660.321 670.247 654.095 747.347 643.06 808.681M531.656 -444.564C526.865 -432.975 522.519 -420.614 514.864 -409.201C490.576 -373.013 457.01 -346.145 427.613 -316.332C369.925 -257.795 330.641 -193.479 307.689 -145.348C234.302 8.53555 239.842 120.62 288.795 195.143C353.501 293.64 473.723 304.49 570.746 422.532C611.932 472.654 638.03 526.919 651.873 583.873C671.075 663.204 665.25 740.777 654.484 802.796M531.207 -455.639C525.739 -444.149 520.68 -432.075 513.011 -420.794C488.279 -384.394 456.667 -355.868 428.996 -325.341C374.342 -265.038 336.778 -201.63 314.026 -152.566C241.857 3.08089 249.988 112.479 298.017 184.708C363.34 282.97 484.26 292.977 581.96 413.452C623.231 464.35 648.991 519.382 662.701 576.429C681.788 656.13 676.373 734.176 665.848 796.871M530.763 -466.717C524.614 -455.327 518.842 -443.537 511.163 -432.392C485.972 -395.781 456.354 -365.586 430.397 -334.366C378.812 -272.287 342.937 -209.818 320.386 -159.776C249.425 -2.38187 260.205 104.365 307.258 174.306C373.209 272.331 495.069 281.308 593.202 404.447C634.665 456.042 659.978 511.908 673.554 569.054C692.505 649.121 687.506 727.618 677.236 791.021M530.314 -477.792C523.483 -466.501 516.994 -455 509.315 -443.984C483.666 -407.169 456.026 -375.307 431.79 -343.403C383.304 -279.547 349.077 -218.019 326.741 -167.046C256.975 -7.86725 270.406 96.1677 316.495 163.834C383.096 261.609 505.55 269.825 604.448 395.357C645.952 447.751 670.973 504.351 684.44 561.604C703.295 642.044 698.673 721.034 688.652 785.09M529.864 -488.867C522.357 -477.674 515.132 -466.476 507.468 -455.582C481.294 -418.601 455.716 -385.011 433.184 -352.415C387.818 -286.784 355.126 -226.23 333.088 -174.268C264.226 -13.4355 280.608 88.0209 325.728 153.421C392.992 250.929 516.045 258.385 615.682 386.315C657.226 439.512 681.949 496.847 695.258 554.193C713.997 635.003 709.776 714.466 700.005 779.203M529.421 -499.945C259.198 -133.802 267.335 46.2482 334.958 142.992C402.944 240.218 526.506 246.929 626.916 377.263C727.326 507.598 727.643 661.596 711.39 773.307" stroke="#3A37ED" stroke-width="1.02" stroke-miterlimit="10"/>
</g>
<defs>
<clipPath id="clip0_210_31">
<rect width="315" height="700" fill="white"/>
</clipPath>
</defs>
</svg>
